<svg width="772" height="554" viewBox="0 0 772 554" fill="none" xmlns="http://www.w3.org/2000/svg">
<g clip-path="url(#clip0_572_2)">
<path d="M432.474 460.87C431.557 470.879 434.595 480.615 441.03 488.283C447.464 495.951 456.524 500.634 466.54 501.468C476.557 502.303 486.332 499.19 494.063 492.703C501.795 486.215 506.558 477.13 507.475 467.12C508.392 457.111 505.354 447.375 498.92 439.707C492.485 432.039 483.425 427.357 473.409 426.522C463.392 425.687 453.618 428.8 445.886 435.287C438.155 441.775 433.392 450.86 432.474 460.87ZM492.173 445.368C502.36 457.508 500.689 475.741 488.449 486.012C476.208 496.282 457.963 494.762 447.776 482.622C437.589 470.482 439.26 452.249 451.501 441.978C463.741 431.707 481.987 433.228 492.173 445.368Z" fill="#F09DBC"/>
<path d="M451.168 479.776C459.798 490.061 475.256 491.349 485.626 482.647C495.996 473.946 497.412 458.499 488.781 448.214C480.151 437.929 464.694 436.641 454.324 445.343C443.953 454.044 442.538 469.491 451.168 479.776ZM484.039 462.386C485.424 464.037 485.198 466.509 483.533 467.906C481.867 469.303 479.394 469.097 478.008 467.446C476.622 465.794 476.849 463.323 478.514 461.925C480.179 460.528 482.653 460.734 484.039 462.386ZM471.978 472.506C473.364 474.157 473.137 476.629 471.472 478.026C469.807 479.423 467.334 479.217 465.948 477.566C464.562 475.914 464.789 473.442 466.454 472.045C468.119 470.648 470.592 470.854 471.978 472.506ZM474.002 450.424C475.388 452.076 475.161 454.547 473.496 455.945C471.831 457.342 469.357 457.136 467.971 455.484C466.586 453.833 466.812 451.361 468.477 449.964C470.142 448.567 472.616 448.773 474.002 450.424ZM461.941 460.544C463.327 462.196 463.101 464.667 461.435 466.065C459.77 467.462 457.297 467.256 455.911 465.604C454.525 463.953 454.752 461.481 456.417 460.084C458.082 458.687 460.555 458.893 461.941 460.544Z" fill="#A34672"/>
</g>
<path d="M0 25.8959C0 5.79585 0.199995 -4.90415 0.299995 2.19585L0.699997 14.8959H11.6H22.6V24.3959V33.8959H11.6H0.699997L0.299995 48.1959C0.199995 55.9959 0 45.9959 0 25.8959Z" fill="#F09DBC"/>
<path d="M364.752 420.36C355.632 415.848 346.032 413.592 335.952 413.592C330.96 413.592 327.168 414.552 324.576 416.472C321.984 418.392 320.688 420.984 320.688 424.248C320.688 429.624 324.72 433.464 332.784 435.768C347.088 439.704 357.12 444.408 362.88 449.88C368.736 455.352 371.664 462.408 371.664 471.048C371.664 481.224 368.208 489 361.296 494.376C354.384 499.752 344.16 502.44 330.624 502.44C324.576 502.44 318.288 501.528 311.76 499.704C305.232 497.784 299.76 495.336 295.344 492.36L301.104 473.208C310.896 479.928 321.072 483.288 331.632 483.288C336.624 483.288 340.368 482.28 342.864 480.264C345.456 478.152 346.752 475.224 346.752 471.48C346.752 468.408 345.696 465.912 343.584 463.992C341.568 462.072 337.968 460.344 332.784 458.808C319.632 454.968 310.176 450.312 304.416 444.84C298.656 439.272 295.776 432.408 295.776 424.248C295.776 415.128 299.184 407.88 306 402.504C312.912 397.128 322.56 394.44 334.944 394.44C348.096 394.44 359.52 396.744 369.216 401.352L364.752 420.36Z" fill="#A34672"/>
<path d="M409.784 428H434.264V444.272H409.784V471.2C409.784 476.384 410.408 479.84 411.656 481.568C412.904 483.296 415.16 484.16 418.424 484.16C422.552 484.16 426.872 483.392 431.384 481.856L433.976 498.56C427.16 500.48 420.152 501.44 412.952 501.44C403.736 501.44 396.968 499.376 392.648 495.248C388.424 491.12 386.312 484.4 386.312 475.088V444.272H370.904V428H386.312V400.64H409.784V428Z" fill="#A34672"/>
<path d="M575.096 480.264L580.136 496.968C572.264 500.616 563.864 502.44 554.936 502.44C542.264 502.44 532.184 498.984 524.696 492.072C517.208 485.064 513.464 475.56 513.464 463.56C513.464 451.464 517.112 441.96 524.408 435.048C531.704 428.136 541.88 424.68 554.936 424.68C563.864 424.68 572.264 426.504 580.136 430.152L575.096 447.144C569.048 443.592 562.76 441.816 556.232 441.816C550.088 441.816 545.288 443.688 541.832 447.432C538.472 451.08 536.792 456.456 536.792 463.56C536.792 470.376 538.568 475.752 542.12 479.688C545.768 483.624 550.472 485.592 556.232 485.592C562.76 485.592 569.048 483.816 575.096 480.264Z" fill="#A34672"/>
<path d="M409.198 428.5H386.606L386.772 443.797H409.198V428.5Z" fill="#F09DBC"/>
<path d="M386.5 428.5H409.198V443.797H386.772L386.601 428" stroke="#F09DBC"/>
<path d="M434 428.5H410.198V443.8H434V428.5Z" fill="#F7CEE0"/>
<path d="M410 428.5H434V443.8H410.198V428" stroke="#F7CEE0"/>
<path d="M386 428.506H371.427V444H386V428.506Z" fill="#F7CEE0"/>
<path d="M371 428.506H386V444H371.427V428" stroke="#F7CEE0"/>
<path d="M662 427H632.5L612 442.5L612.5 482L632.5 499.5H662L619 463L662 427Z" fill="#F7CEE0" stroke="#F7CEE0"/>
<path d="M611.5 391H589V499.5H611.5V391Z" fill="#A34672" stroke="#A34672"/>
<path d="M611.5 443L589.5 462L611.5 481V443Z" fill="#F09DBC" stroke="#F09DBC"/>
<path d="M695.5 501H670L707 397L719.5 432.5L695.5 501Z" fill="#A34672" stroke="#A34672"/>
<path d="M745 501H770.5L733.5 397L721 432.5L745 501Z" fill="#F7CEE0" stroke="#F7CEE0"/>
<path d="M719.5 431.5C719.2 430.2 715.6 421.4 712.6 412.8L707 395.5L719 395.5C726 395.5 733.5 395.3 733.5 395.5C733.5 395.8 723.3 425.4 721 431.5C720.5 432 720.5 433.5 719.5 431.5Z" fill="#F09DBC"/>
<defs>
<clipPath id="clip0_572_2">
<rect width="74.95" height="75.57" fill="white" transform="translate(465.118 516.99) rotate(-130)"/>
</clipPath>
</defs>
</svg>
